<svg xmlns="http://www.w3.org/2000/svg" xmlns:xlink="http://www.w3.org/1999/xlink" width="500" zoomAndPan="magnify" viewBox="0 0 375 37.5" height="50" preserveAspectRatio="xMidYMid meet" version="1.0"><defs><g/><clipPath id="4be828426b"><path d="M 5 2 L 58 2 L 58 33 L 5 33 Z M 5 2 " clip-rule="nonzero"/></clipPath><clipPath id="d1fcc5313d"><path d="M 5.980469 0 L 58.921875 6.335938 L 55.402344 35.75 L 2.460938 29.414062 Z M 5.980469 0 " clip-rule="nonzero"/></clipPath><clipPath id="ffed4407f0"><path d="M 5.980469 0 L 58.921875 6.335938 L 55.402344 35.75 L 2.460938 29.414062 Z M 5.980469 0 " clip-rule="nonzero"/></clipPath><clipPath id="6087cfae98"><path d="M 22 8 L 38 8 L 38 17 L 22 17 Z M 22 8 " clip-rule="nonzero"/></clipPath><clipPath id="835d911ea9"><path d="M 5.980469 0 L 58.921875 6.335938 L 55.402344 35.75 L 2.460938 29.414062 Z M 5.980469 0 " clip-rule="nonzero"/></clipPath><clipPath id="e2d2bb1d83"><path d="M 5.980469 0 L 58.921875 6.335938 L 55.402344 35.75 L 2.460938 29.414062 Z M 5.980469 0 " clip-rule="nonzero"/></clipPath></defs><g clip-path="url(#4be828426b)"><g clip-path="url(#d1fcc5313d)"><g clip-path="url(#ffed4407f0)"><path fill="#803362" d="M 16.085938 17.945312 C 15.199219 18.519531 14.171875 18.917969 13.027344 19.15625 C 12.117188 19.339844 11.253906 19.382812 10.472656 19.289062 C 10.246094 19.265625 10.023438 19.222656 9.800781 19.171875 C 7.933594 18.734375 6.324219 17.363281 5.609375 15.59375 C 4.894531 13.824219 5.105469 11.738281 6.15625 10.140625 C 7.144531 8.613281 8.828125 7.664062 10.535156 7.667969 C 12.480469 7.675781 14.261719 8.957031 14.789062 10.71875 C 15.070312 11.632812 14.957031 12.675781 14.515625 13.574219 C 14.039062 14.503906 13.230469 15.195312 12.296875 15.484375 C 11.617188 15.683594 10.894531 15.304688 10.695312 14.625 C 10.496094 13.945312 10.875 13.230469 11.558594 13.03125 C 11.820312 12.957031 12.046875 12.742188 12.207031 12.441406 C 12.363281 12.125 12.410156 11.757812 12.320312 11.464844 C 12.121094 10.785156 11.324219 10.25 10.535156 10.25 C 9.703125 10.242188 8.820312 10.765625 8.308594 11.558594 C 7.71875 12.453125 7.597656 13.679688 8.003906 14.664062 C 8.410156 15.664062 9.335938 16.453125 10.378906 16.699219 C 10.980469 16.839844 11.695312 16.832031 12.507812 16.660156 C 13.332031 16.492188 14.066406 16.207031 14.6875 15.8125 C 16.335938 14.726562 17.332031 12.585938 17.101562 10.582031 C 16.886719 8.578125 15.511719 6.703125 13.617188 5.792969 C 11.765625 4.902344 9.421875 4.957031 7.519531 5.933594 C 6.886719 6.257812 6.113281 6.003906 5.785156 5.378906 C 5.457031 4.75 5.710938 3.976562 6.339844 3.652344 C 8.957031 2.320312 12.160156 2.265625 14.726562 3.480469 C 17.410156 4.761719 19.347656 7.425781 19.660156 10.300781 C 20 13.28125 18.558594 16.355469 16.085938 17.945312 Z M 57.347656 13.300781 C 57.03125 10.441406 55.082031 7.761719 52.417969 6.480469 C 49.851562 5.25 46.644531 5.320312 44.03125 6.640625 C 43.402344 6.964844 43.148438 7.738281 43.476562 8.363281 C 43.800781 8.992188 44.578125 9.246094 45.207031 8.917969 C 47.109375 7.957031 49.453125 7.902344 51.308594 8.78125 C 53.199219 9.6875 54.574219 11.5625 54.792969 13.566406 C 55.019531 15.574219 54.027344 17.714844 52.367188 18.769531 C 51.757812 19.164062 51.011719 19.449219 50.1875 19.621094 C 49.386719 19.777344 48.671875 19.800781 48.058594 19.660156 C 47.015625 19.414062 46.074219 18.621094 45.683594 17.625 C 45.28125 16.625 45.398438 15.410156 45.988281 14.519531 C 46.511719 13.726562 47.378906 13.214844 48.214844 13.207031 C 49.019531 13.210938 49.800781 13.746094 50 14.425781 C 50.085938 14.714844 50.042969 15.085938 49.886719 15.398438 C 49.726562 15.703125 49.5 15.914062 49.238281 15.992188 C 48.554688 16.191406 48.160156 16.902344 48.375 17.585938 C 48.574219 18.265625 49.292969 18.65625 49.976562 18.445312 C 50.910156 18.167969 51.71875 17.476562 52.195312 16.53125 C 52.636719 15.636719 52.746094 14.59375 52.46875 13.675781 C 51.941406 11.902344 50.148438 10.621094 48.214844 10.628906 C 46.507812 10.625 44.824219 11.574219 43.835938 13.097656 C 42.785156 14.695312 42.585938 16.785156 43.300781 18.566406 C 44.015625 20.351562 45.625 21.707031 47.492188 22.144531 C 47.714844 22.199219 47.925781 22.234375 48.164062 22.265625 C 48.957031 22.359375 49.808594 22.316406 50.71875 22.128906 C 51.859375 21.890625 52.890625 21.492188 53.777344 20.917969 C 56.25 19.34375 57.691406 16.28125 57.347656 13.300781 Z M 41.441406 30.175781 C 41.648438 30.574219 41.632812 31.039062 41.402344 31.414062 C 41.167969 31.785156 40.761719 32.03125 40.320312 32.03125 C 31.828125 32.179688 23.226562 31.789062 14.777344 30.886719 C 14.777344 30.886719 14.765625 30.886719 14.765625 30.886719 C 14.34375 30.835938 13.96875 30.574219 13.773438 30.191406 C 13.578125 29.808594 13.59375 29.339844 13.8125 28.96875 C 15.230469 26.542969 16.625 24.546875 17.972656 22.609375 C 18.214844 22.277344 18.441406 21.929688 18.683594 21.597656 C 18.941406 21.226562 19.386719 21.011719 19.835938 21.054688 C 21.355469 21.167969 22.871094 21.28125 24.347656 21.40625 C 28.9375 21.769531 33.289062 22.101562 37.414062 22.316406 C 37.949219 22.339844 38.402344 22.699219 38.570312 23.203125 C 39.207031 25.175781 40.003906 27.382812 41.441406 30.175781 Z M 38.246094 29.5 C 37.4375 27.730469 36.855469 26.175781 36.386719 24.824219 C 32.492188 24.597656 28.421875 24.285156 24.136719 23.960938 C 22.886719 23.863281 21.632812 23.769531 20.355469 23.667969 C 20.261719 23.804688 20.164062 23.9375 20.066406 24.085938 C 19.078125 25.492188 18.070312 26.949219 17.058594 28.566406 C 24.082031 29.234375 31.1875 29.550781 38.246094 29.5 Z M 38.246094 29.5 " fill-opacity="1" fill-rule="nonzero"/></g></g></g><g clip-path="url(#6087cfae98)"><g clip-path="url(#835d911ea9)"><g clip-path="url(#e2d2bb1d83)"><path fill="#ff66c4" d="M 27.570312 8.960938 C 27.570312 8.960938 27.582031 8.960938 27.582031 8.972656 L 27.570312 8.960938 C 27.554688 8.957031 27.554688 8.957031 27.570312 8.960938 Z M 28.074219 9.796875 C 28.066406 9.742188 28.058594 9.6875 28.058594 9.59375 C 28.054688 9.5 28.042969 9.378906 27.996094 9.222656 C 27.984375 9.210938 27.984375 9.210938 27.972656 9.167969 L 28 9.277344 C 27.96875 9.222656 27.921875 9.164062 27.886719 9.105469 C 27.875 9.089844 27.890625 9.078125 27.890625 9.078125 C 27.859375 9.019531 27.8125 8.960938 27.765625 8.902344 L 27.746094 8.832031 C 27.699219 8.789062 27.679688 8.839844 27.574219 8.707031 C 27.605469 8.777344 27.496094 8.671875 27.492188 8.695312 C 27.496094 8.683594 27.484375 8.667969 27.472656 8.652344 C 27.433594 8.621094 27.371094 8.589844 27.308594 8.554688 C 27.246094 8.535156 27.191406 8.515625 27.167969 8.511719 C 27.167969 8.511719 27.191406 8.527344 27.214844 8.542969 C 27.242188 8.558594 27.292969 8.59375 27.328125 8.636719 C 27.363281 8.667969 27.410156 8.714844 27.433594 8.757812 C 27.46875 8.800781 27.492188 8.832031 27.5 8.859375 C 27.417969 8.769531 27.476562 8.839844 27.488281 8.871094 L 27.5 8.871094 C 27.546875 8.929688 27.53125 8.941406 27.554688 8.972656 C 27.554688 8.972656 27.554688 8.972656 27.566406 8.972656 C 27.566406 8.972656 27.582031 8.972656 27.59375 8.988281 C 27.617188 9.003906 27.652344 9.050781 27.664062 9.078125 L 27.648438 9.089844 C 27.660156 9.089844 27.683594 9.121094 27.707031 9.148438 C 27.71875 9.164062 27.730469 9.191406 27.726562 9.207031 C 27.59375 8.976562 27.390625 8.777344 27.121094 8.664062 C 27.121094 8.664062 27.109375 8.664062 27.109375 8.664062 C 27.101562 8.609375 27.09375 8.570312 27.074219 8.511719 C 26.988281 8.4375 26.875 8.367188 26.761719 8.316406 C 26.441406 8.289062 26.109375 8.371094 25.832031 8.539062 C 25.605469 8.65625 25.410156 8.835938 25.261719 9.058594 C 25.175781 9.207031 25.136719 9.324219 25.082031 9.4375 L 24.917969 9.792969 C 24.808594 10.03125 24.699219 10.273438 24.578125 10.5 L 24.550781 10.617188 C 24.359375 10.863281 24.234375 11.246094 24.039062 11.53125 L 24.0625 11.546875 C 24.027344 11.636719 24 11.621094 23.988281 11.632812 C 23.777344 12.019531 23.558594 12.410156 23.339844 12.785156 L 23.253906 12.921875 C 23.222656 12.96875 23.203125 13.007812 23.167969 13.070312 C 23.101562 13.183594 23.0625 13.300781 23.019531 13.414062 C 22.953125 13.648438 22.949219 13.902344 22.988281 14.132812 C 22.996094 14.171875 23.011719 14.269531 23.042969 14.351562 C 23.074219 14.4375 23.117188 14.523438 23.125 14.550781 C 23.21875 14.679688 23.324219 14.800781 23.433594 14.90625 C 23.554688 15.015625 23.679688 15.097656 23.820312 15.167969 L 23.804688 15.164062 C 23.84375 15.183594 23.894531 15.203125 23.933594 15.222656 C 23.933594 15.222656 23.929688 15.234375 23.929688 15.234375 C 24.089844 15.265625 24.332031 15.347656 24.539062 15.332031 L 24.523438 15.332031 C 24.820312 15.328125 25.101562 15.226562 25.335938 15.054688 C 25.453125 14.976562 25.558594 14.882812 25.636719 14.769531 C 25.683594 14.722656 25.71875 14.660156 25.753906 14.597656 L 25.839844 14.445312 C 26.074219 14.035156 26.3125 13.621094 26.578125 13.210938 C 26.835938 12.84375 27.03125 12.34375 27.300781 11.882812 C 27.375 11.808594 27.8125 10.847656 27.824219 10.753906 L 27.746094 10.851562 C 27.820312 10.675781 27.875 10.546875 27.945312 10.410156 C 28.015625 10.269531 28.050781 10.113281 28.058594 9.914062 L 28.070312 9.941406 C 28.097656 9.917969 28.089844 9.890625 28.074219 9.796875 Z M 27.890625 9.078125 C 27.90625 9.066406 27.894531 9.066406 27.890625 9.078125 Z M 27.488281 8.640625 C 27.449219 8.625 27.460938 8.640625 27.488281 8.640625 C 27.511719 8.671875 27.535156 8.6875 27.535156 8.6875 C 27.507812 8.683594 27.5 8.65625 27.488281 8.640625 Z M 27.488281 8.871094 L 27.472656 8.867188 C 27.496094 8.882812 27.5 8.871094 27.488281 8.871094 Z M 32.410156 9.351562 L 32.425781 9.355469 C 32.425781 9.355469 32.414062 9.339844 32.410156 9.351562 C 32.414062 9.339844 32.410156 9.351562 32.410156 9.351562 Z M 32.992188 10.332031 C 32.996094 10.304688 32.984375 10.277344 32.96875 10.179688 C 32.953125 10.085938 32.960938 9.925781 32.863281 9.605469 C 32.851562 9.59375 32.851562 9.59375 32.832031 9.550781 C 32.839844 9.589844 32.847656 9.617188 32.859375 9.660156 C 32.824219 9.601562 32.777344 9.554688 32.730469 9.484375 C 32.71875 9.46875 32.722656 9.457031 32.734375 9.457031 C 32.699219 9.398438 32.640625 9.339844 32.59375 9.28125 L 32.5625 9.222656 C 32.496094 9.1875 32.492188 9.242188 32.375 9.105469 C 32.382812 9.136719 32.371094 9.132812 32.34375 9.117188 C 32.320312 9.101562 32.296875 9.085938 32.292969 9.097656 C 32.296875 9.085938 32.269531 9.066406 32.273438 9.054688 C 32.234375 9.023438 32.15625 9 32.09375 8.964844 C 32.03125 8.945312 31.980469 8.925781 31.953125 8.921875 C 31.953125 8.921875 31.976562 8.9375 32.003906 8.957031 C 32.039062 8.972656 32.078125 9.003906 32.125 9.039062 C 32.210938 9.101562 32.292969 9.203125 32.316406 9.246094 C 32.21875 9.15625 32.292969 9.230469 32.300781 9.257812 L 32.316406 9.261719 C 32.375 9.320312 32.359375 9.332031 32.382812 9.363281 C 32.382812 9.363281 32.382812 9.363281 32.394531 9.363281 C 32.394531 9.363281 32.410156 9.367188 32.421875 9.378906 C 32.445312 9.394531 32.480469 9.441406 32.492188 9.46875 L 32.476562 9.480469 C 32.503906 9.484375 32.535156 9.539062 32.570312 9.597656 C 32.421875 9.367188 32.203125 9.179688 31.921875 9.078125 C 31.921875 9.078125 31.90625 9.078125 31.90625 9.078125 C 31.898438 9.035156 31.878906 8.980469 31.855469 8.9375 C 31.804688 8.90625 31.757812 8.871094 31.695312 8.839844 C 31.640625 8.820312 31.578125 8.785156 31.515625 8.761719 C 31.179688 8.761719 30.855469 8.871094 30.589844 9.082031 C 30.371094 9.226562 30.171875 9.417969 30.0625 9.660156 L 30.023438 9.773438 L 29.984375 9.863281 L 29.921875 10.058594 L 29.78125 10.441406 C 29.683594 10.695312 29.589844 10.9375 29.476562 11.191406 L 29.464844 11.3125 C 29.285156 11.585938 29.183594 11.972656 28.988281 12.269531 L 29.011719 12.285156 C 28.972656 12.375 28.960938 12.359375 28.945312 12.386719 C 28.75 12.789062 28.554688 13.195312 28.34375 13.597656 C 28.292969 13.699219 28.238281 13.796875 28.1875 13.898438 C 28.121094 14.011719 28.078125 14.140625 28.050781 14.257812 C 27.992188 14.503906 27.992188 14.757812 28.042969 14.992188 C 28.050781 15.03125 28.066406 15.128906 28.109375 15.214844 C 28.140625 15.296875 28.1875 15.371094 28.195312 15.410156 C 28.394531 15.660156 28.648438 15.878906 28.945312 15.996094 L 28.929688 15.992188 C 28.980469 16.011719 29.019531 16.03125 29.074219 16.035156 C 29.074219 16.035156 29.070312 16.050781 29.070312 16.050781 C 29.242188 16.082031 29.492188 16.128906 29.707031 16.113281 L 29.695312 16.109375 C 29.996094 16.082031 30.277344 15.953125 30.5 15.765625 C 30.605469 15.671875 30.714844 15.566406 30.78125 15.4375 L 30.832031 15.351562 L 30.882812 15.277344 L 30.96875 15.113281 C 31.195312 14.6875 31.421875 14.257812 31.664062 13.808594 C 31.914062 13.410156 32.082031 12.882812 32.328125 12.402344 C 32.402344 12.332031 32.78125 11.308594 32.804688 11.21875 L 32.726562 11.328125 C 32.789062 11.136719 32.847656 10.996094 32.902344 10.867188 C 32.957031 10.726562 33.003906 10.558594 32.988281 10.371094 Z M 32.75 9.445312 C 32.765625 9.433594 32.75 9.433594 32.75 9.445312 Z M 32.300781 9.03125 C 32.277344 9.003906 32.289062 9.015625 32.300781 9.03125 C 32.324219 9.0625 32.351562 9.078125 32.351562 9.078125 C 32.339844 9.0625 32.3125 9.046875 32.300781 9.03125 Z M 32.328125 9.25 L 32.316406 9.246094 C 32.328125 9.261719 32.328125 9.261719 32.328125 9.25 Z M 37.25 9.757812 L 37.265625 9.757812 C 37.265625 9.757812 37.265625 9.746094 37.25 9.757812 C 37.253906 9.746094 37.25 9.757812 37.25 9.757812 Z M 37.730469 11.152344 C 37.785156 11.011719 37.816406 10.855469 37.8125 10.667969 L 37.824219 10.695312 C 37.828125 10.667969 37.816406 10.640625 37.800781 10.558594 C 37.785156 10.464844 37.789062 10.316406 37.703125 10.011719 C 37.691406 9.996094 37.691406 9.996094 37.683594 9.957031 L 37.710938 10.066406 C 37.675781 10.007812 37.644531 9.964844 37.597656 9.90625 C 37.585938 9.890625 37.597656 9.878906 37.597656 9.878906 C 37.566406 9.820312 37.519531 9.761719 37.472656 9.71875 L 37.449219 9.660156 C 37.402344 9.617188 37.382812 9.679688 37.277344 9.546875 C 37.308594 9.617188 37.199219 9.511719 37.210938 9.539062 C 37.210938 9.527344 37.199219 9.511719 37.1875 9.496094 C 37.152344 9.464844 37.089844 9.429688 37.023438 9.410156 C 36.960938 9.386719 36.90625 9.367188 36.882812 9.367188 C 36.882812 9.367188 36.90625 9.382812 36.929688 9.398438 C 36.957031 9.414062 37.007812 9.449219 37.042969 9.492188 C 37.078125 9.523438 37.113281 9.566406 37.148438 9.613281 C 37.183594 9.644531 37.207031 9.683594 37.21875 9.699219 C 37.132812 9.609375 37.191406 9.683594 37.203125 9.710938 L 37.214844 9.714844 C 37.261719 9.773438 37.246094 9.785156 37.269531 9.8125 C 37.269531 9.8125 37.269531 9.8125 37.285156 9.816406 C 37.285156 9.816406 37.296875 9.816406 37.308594 9.832031 C 37.335938 9.847656 37.371094 9.890625 37.378906 9.921875 L 37.363281 9.929688 C 37.390625 9.933594 37.410156 9.992188 37.445312 10.046875 C 37.308594 9.832031 37.101562 9.644531 36.847656 9.535156 C 36.847656 9.535156 36.835938 9.535156 36.835938 9.535156 C 36.828125 9.480469 36.820312 9.4375 36.800781 9.382812 C 36.714844 9.304688 36.613281 9.253906 36.5 9.199219 C 36.179688 9.175781 35.859375 9.257812 35.597656 9.425781 C 35.371094 9.53125 35.175781 9.695312 35.027344 9.917969 C 34.980469 9.980469 34.957031 10.058594 34.925781 10.121094 L 34.847656 10.300781 L 34.699219 10.65625 L 34.398438 11.367188 L 34.386719 11.488281 C 34.207031 11.746094 34.121094 12.125 33.953125 12.410156 L 33.976562 12.425781 C 33.941406 12.515625 33.929688 12.5 33.914062 12.511719 C 33.746094 12.90625 33.589844 13.316406 33.421875 13.710938 C 33.382812 13.8125 33.34375 13.902344 33.304688 14.003906 C 33.285156 14.042969 33.265625 14.105469 33.246094 14.171875 C 33.226562 14.222656 33.21875 14.289062 33.199219 14.339844 C 33.144531 14.574219 33.152344 14.8125 33.207031 15.035156 C 33.203125 15.074219 33.230469 15.171875 33.265625 15.242188 C 33.292969 15.324219 33.339844 15.398438 33.347656 15.4375 C 33.535156 15.675781 33.777344 15.890625 34.042969 16.015625 L 34.03125 16.015625 C 34.070312 16.03125 34.121094 16.050781 34.160156 16.070312 C 34.160156 16.070312 34.15625 16.082031 34.15625 16.082031 C 34.316406 16.117188 34.546875 16.183594 34.75 16.179688 L 34.738281 16.179688 C 35.019531 16.171875 35.300781 16.074219 35.519531 15.914062 C 35.753906 15.753906 35.929688 15.535156 36.039062 15.292969 C 36.132812 15.078125 36.222656 14.859375 36.304688 14.644531 C 36.398438 14.425781 36.488281 14.222656 36.59375 14.007812 C 36.816406 13.621094 36.953125 13.128906 37.183594 12.675781 C 37.246094 12.605469 37.628906 11.660156 37.652344 11.570312 L 37.574219 11.667969 C 37.609375 11.578125 37.632812 11.5 37.667969 11.4375 C 37.671875 11.277344 37.691406 11.226562 37.730469 11.152344 Z M 37.574219 9.851562 C 37.589844 9.839844 37.589844 9.839844 37.574219 9.851562 Z M 37.167969 9.441406 C 37.144531 9.425781 37.15625 9.4375 37.167969 9.441406 C 37.191406 9.46875 37.214844 9.484375 37.214844 9.484375 C 37.203125 9.472656 37.191406 9.457031 37.167969 9.441406 Z M 37.183594 9.65625 L 37.167969 9.652344 C 37.179688 9.667969 37.179688 9.667969 37.183594 9.65625 Z M 37.183594 9.65625 " fill-opacity="1" fill-rule="nonzero"/></g></g></g><g fill="#ff914d" fill-opacity="1"><g transform="translate(67.526674, 29.211802)"><g><path d="M 11.289062 -24.121094 L 3.167969 -24.121094 C 1.902344 -24.121094 0.996094 -23.066406 0.996094 -21.949219 L 0.996094 -2.292969 C 0.996094 -1.207031 1.902344 -0.0898438 3.167969 -0.0898438 L 11.289062 -0.0898438 C 16.03125 -0.0898438 19.652344 -3.925781 19.652344 -8.484375 L 19.652344 -15.757812 C 19.652344 -20.316406 16.03125 -24.121094 11.289062 -24.121094 Z M 12.285156 -11.382812 C 12.285156 -10.113281 11.351562 -9.238281 10.113281 -9.238281 L 8.664062 -9.238281 C 8.453125 -9.238281 8.242188 -9.390625 8.242188 -9.75 L 8.242188 -14.460938 C 8.242188 -14.851562 8.453125 -15.035156 8.664062 -15.035156 L 10.113281 -15.035156 C 11.351562 -15.035156 12.285156 -14.128906 12.285156 -12.832031 Z M 12.285156 -11.382812 "/></g></g></g><g fill="#ff914d" fill-opacity="1"><g transform="translate(87.933058, 29.211802)"><g><path d="M 3.140625 0.03125 L 6.882812 0.03125 C 8.152344 0.03125 9.058594 -0.996094 9.058594 -2.144531 L 9.058594 -21.976562 C 9.058594 -23.246094 8.152344 -24.152344 6.882812 -24.152344 L 3.140625 -24.152344 C 1.960938 -24.152344 0.996094 -23.246094 0.996094 -21.976562 L 0.996094 -2.144531 C 0.996094 -0.996094 1.960938 0.03125 3.140625 0.03125 Z M 3.140625 0.03125 "/></g></g></g><g fill="#ff914d" fill-opacity="1"><g transform="translate(97.985311, 29.211802)"><g><path d="M 19.050781 -16.90625 L 19.050781 -22.25 C 19.050781 -23.277344 18.234375 -24.089844 17.269531 -24.089844 L 2.835938 -24.089844 C 1.839844 -24.089844 1.027344 -23.277344 1.027344 -22.25 L 1.027344 -18.144531 C 1.027344 -17.148438 1.839844 -16.332031 2.835938 -16.332031 L 8.453125 -16.332031 C 8.632812 -16.332031 8.816406 -16.121094 8.816406 -15.941406 C 8.816406 -15.820312 8.785156 -15.730469 8.726562 -15.667969 L 1.449219 -8.574219 C 1.175781 -8.273438 0.996094 -8.03125 0.996094 -7.515625 L 0.996094 -1.871094 C 0.996094 -0.90625 1.8125 -0.0585938 2.808594 -0.0585938 L 17.269531 -0.0585938 C 18.234375 -0.0585938 19.050781 -0.90625 19.050781 -1.871094 L 19.050781 -6.007812 C 19.050781 -7.035156 18.234375 -7.847656 17.269531 -7.847656 L 10.625 -7.847656 L 18.507812 -15.578125 C 18.898438 -15.96875 19.050781 -16.453125 19.050781 -16.90625 Z M 19.050781 -16.90625 "/></g></g></g><g fill="#ff914d" fill-opacity="1"><g transform="translate(118.029453, 29.211802)"><g><path d="M 19.050781 -16.90625 L 19.050781 -22.25 C 19.050781 -23.277344 18.234375 -24.089844 17.269531 -24.089844 L 2.835938 -24.089844 C 1.839844 -24.089844 1.027344 -23.277344 1.027344 -22.25 L 1.027344 -18.144531 C 1.027344 -17.148438 1.839844 -16.332031 2.835938 -16.332031 L 8.453125 -16.332031 C 8.632812 -16.332031 8.816406 -16.121094 8.816406 -15.941406 C 8.816406 -15.820312 8.785156 -15.730469 8.726562 -15.667969 L 1.449219 -8.574219 C 1.175781 -8.273438 0.996094 -8.03125 0.996094 -7.515625 L 0.996094 -1.871094 C 0.996094 -0.90625 1.8125 -0.0585938 2.808594 -0.0585938 L 17.269531 -0.0585938 C 18.234375 -0.0585938 19.050781 -0.90625 19.050781 -1.871094 L 19.050781 -6.007812 C 19.050781 -7.035156 18.234375 -7.847656 17.269531 -7.847656 L 10.625 -7.847656 L 18.507812 -15.578125 C 18.898438 -15.96875 19.050781 -16.453125 19.050781 -16.90625 Z M 19.050781 -16.90625 "/></g></g></g><g fill="#ff914d" fill-opacity="1"><g transform="translate(138.073595, 29.211802)"><g><path d="M 23.941406 -21.734375 C 24.121094 -21.886719 24.300781 -22.28125 24.300781 -22.671875 C 24.300781 -23.609375 23.578125 -24.179688 22.792969 -24.179688 L 17.328125 -24.179688 C 16.964844 -24.179688 16.664062 -24 16.394531 -23.609375 L 12.40625 -18.113281 L 8.632812 -23.609375 C 8.332031 -24.089844 7.847656 -24.179688 7.515625 -24.179688 L 2.023438 -24.179688 C 1.238281 -24.179688 0.511719 -23.609375 0.511719 -22.671875 C 0.511719 -22.28125 0.695312 -21.886719 0.90625 -21.734375 L 8.058594 -11.503906 L 8.058594 -1.722656 C 8.058594 -0.722656 9.027344 0 9.960938 0 L 14.851562 0 C 15.789062 0 16.785156 -0.722656 16.785156 -1.722656 L 16.785156 -11.503906 Z M 23.941406 -21.734375 "/></g></g></g><g fill="#ff914d" fill-opacity="1"><g transform="translate(162.887272, 29.211802)"><g/></g></g><g fill="#ff914d" fill-opacity="1"><g transform="translate(173.150839, 29.211802)"><g><path d="M 11.289062 -24.121094 L 3.167969 -24.121094 C 1.902344 -24.121094 0.996094 -23.066406 0.996094 -21.949219 L 0.996094 -2.292969 C 0.996094 -1.207031 1.902344 -0.0898438 3.167969 -0.0898438 L 11.289062 -0.0898438 C 16.03125 -0.0898438 19.652344 -3.925781 19.652344 -8.484375 L 19.652344 -15.757812 C 19.652344 -20.316406 16.03125 -24.121094 11.289062 -24.121094 Z M 12.285156 -11.382812 C 12.285156 -10.113281 11.351562 -9.238281 10.113281 -9.238281 L 8.664062 -9.238281 C 8.453125 -9.238281 8.242188 -9.390625 8.242188 -9.75 L 8.242188 -14.460938 C 8.242188 -14.851562 8.453125 -15.035156 8.664062 -15.035156 L 10.113281 -15.035156 C 11.351562 -15.035156 12.285156 -14.128906 12.285156 -12.832031 Z M 12.285156 -11.382812 "/></g></g></g><g fill="#ff914d" fill-opacity="1"><g transform="translate(193.55723, 29.211802)"><g><path d="M 9.417969 -17.601562 L 15.546875 -17.601562 C 16.421875 -17.601562 17.148438 -18.324219 17.148438 -19.171875 L 17.148438 -22.550781 C 17.148438 -23.425781 16.421875 -24.121094 15.546875 -24.121094 L 3.199219 -24.121094 C 1.960938 -24.121094 0.996094 -23.15625 0.996094 -22.460938 L 0.996094 -2.808594 C 0.996094 -1.027344 1.960938 -0.0585938 3.199219 -0.0585938 L 15.546875 -0.0585938 C 16.421875 -0.0585938 17.148438 -0.753906 17.148438 -1.628906 L 17.148438 -5.011719 C 17.148438 -5.886719 16.421875 -6.640625 15.546875 -6.640625 L 9.417969 -6.640625 C 9.296875 -6.640625 9.207031 -6.730469 9.207031 -6.851562 L 9.207031 -8.785156 C 9.207031 -8.90625 9.296875 -8.996094 9.417969 -8.996094 L 13.855469 -8.996094 C 14.640625 -8.996094 15.304688 -9.628906 15.304688 -10.445312 L 15.304688 -13.734375 C 15.304688 -14.519531 14.640625 -15.183594 13.855469 -15.183594 L 9.417969 -15.183594 C 9.296875 -15.183594 9.207031 -15.277344 9.207031 -15.367188 L 9.207031 -17.359375 C 9.207031 -17.449219 9.296875 -17.601562 9.417969 -17.601562 Z M 9.417969 -17.601562 "/></g></g></g><g fill="#ff914d" fill-opacity="1"><g transform="translate(211.699592, 29.211802)"><g><path d="M 7.457031 -1.328125 C 7.847656 -0.574219 8.605469 0 9.328125 0 L 13.976562 0 C 14.914062 0 15.636719 -0.574219 16.03125 -1.328125 L 22.914062 -21.585938 C 22.914062 -21.585938 23.183594 -22.460938 22.734375 -23.277344 C 22.371094 -24.03125 21.796875 -24.179688 21.042969 -24.179688 L 16.964844 -24.179688 C 15.847656 -24.179688 15.457031 -23.457031 14.914062 -22.160156 L 12.105469 -14.519531 C 12.105469 -14.519531 12.046875 -14.28125 11.742188 -14.28125 C 11.441406 -14.28125 11.382812 -14.519531 11.382812 -14.519531 L 8.605469 -22.160156 C 8.03125 -23.457031 7.667969 -24.179688 6.519531 -24.179688 L 2.265625 -24.179688 C 1.691406 -24.179688 1.117188 -24.03125 0.753906 -23.277344 C 0.332031 -22.460938 0.574219 -21.585938 0.574219 -21.585938 Z M 7.457031 -1.328125 "/></g></g></g><g fill="#ff914d" fill-opacity="1"><g transform="translate(235.215238, 29.211802)"><g><path d="M 9.417969 -17.601562 L 15.546875 -17.601562 C 16.421875 -17.601562 17.148438 -18.324219 17.148438 -19.171875 L 17.148438 -22.550781 C 17.148438 -23.425781 16.421875 -24.121094 15.546875 -24.121094 L 3.199219 -24.121094 C 1.960938 -24.121094 0.996094 -23.15625 0.996094 -22.460938 L 0.996094 -2.808594 C 0.996094 -1.027344 1.960938 -0.0585938 3.199219 -0.0585938 L 15.546875 -0.0585938 C 16.421875 -0.0585938 17.148438 -0.753906 17.148438 -1.628906 L 17.148438 -5.011719 C 17.148438 -5.886719 16.421875 -6.640625 15.546875 -6.640625 L 9.417969 -6.640625 C 9.296875 -6.640625 9.207031 -6.730469 9.207031 -6.851562 L 9.207031 -8.785156 C 9.207031 -8.90625 9.296875 -8.996094 9.417969 -8.996094 L 13.855469 -8.996094 C 14.640625 -8.996094 15.304688 -9.628906 15.304688 -10.445312 L 15.304688 -13.734375 C 15.304688 -14.519531 14.640625 -15.183594 13.855469 -15.183594 L 9.417969 -15.183594 C 9.296875 -15.183594 9.207031 -15.277344 9.207031 -15.367188 L 9.207031 -17.359375 C 9.207031 -17.449219 9.296875 -17.601562 9.417969 -17.601562 Z M 9.417969 -17.601562 "/></g></g></g><g fill="#ff914d" fill-opacity="1"><g transform="translate(253.357601, 29.211802)"><g><path d="M 14.972656 -8.152344 L 9.085938 -8.152344 L 9.085938 -21.707031 C 9.085938 -23.003906 7.941406 -24.152344 6.703125 -24.152344 L 3.199219 -24.152344 C 1.902344 -24.152344 0.996094 -23.003906 0.996094 -21.707031 L 0.996094 -1.992188 C 0.996094 -0.90625 1.691406 0 2.988281 0 L 14.972656 0 C 16.089844 0 16.996094 -0.90625 16.996094 -1.992188 L 16.996094 -6.039062 C 16.996094 -7.15625 16.089844 -8.152344 14.972656 -8.152344 Z M 14.972656 -8.152344 "/></g></g></g><g fill="#ff914d" fill-opacity="1"><g transform="translate(271.349028, 29.211802)"><g><path d="M 10.355469 -24.511719 C 5.402344 -24.511719 0.511719 -20.527344 0.511719 -15.546875 L 0.511719 -8.664062 C 0.511719 -3.5 5.402344 0.511719 10.355469 0.511719 C 15.425781 0.511719 20.195312 -3.5 20.195312 -8.664062 L 20.195312 -15.546875 C 20.195312 -20.527344 15.425781 -24.511719 10.355469 -24.511719 Z M 12.378906 -8.964844 C 12.378906 -7.941406 11.441406 -7.035156 10.355469 -7.035156 C 9.238281 -7.035156 8.363281 -7.941406 8.363281 -8.964844 L 8.363281 -15.003906 C 8.363281 -16.089844 9.238281 -16.996094 10.355469 -16.996094 C 11.441406 -16.996094 12.378906 -16.089844 12.378906 -15.003906 Z M 12.378906 -8.964844 "/></g></g></g><g fill="#ff914d" fill-opacity="1"><g transform="translate(292.057276, 29.211802)"><g><path d="M 17.84375 -20.4375 C 17.175781 -22.613281 15.183594 -24.089844 12.921875 -24.089844 L 3.351562 -24.089844 C 2.054688 -24.089844 0.996094 -23.003906 0.996094 -21.707031 L 0.996094 -2.445312 C 0.996094 -1.117188 2.054688 -0.0585938 3.351562 -0.0585938 L 6.492188 -0.0585938 C 7.789062 -0.0585938 8.84375 -1.117188 8.84375 -2.445312 L 8.84375 -7.96875 L 13.042969 -7.96875 C 14.308594 -7.96875 15.515625 -8.511719 16.332031 -9.480469 C 17.328125 -10.6875 18.355469 -12.769531 18.355469 -16.242188 C 18.355469 -17.992188 18.144531 -19.410156 17.84375 -20.4375 Z M 11.59375 -16.300781 L 11.59375 -15.878906 C 11.59375 -14.851562 10.808594 -14.066406 9.8125 -14.066406 L 9.238281 -14.066406 C 8.996094 -14.066406 8.84375 -14.21875 8.84375 -14.429688 L 8.84375 -17.691406 C 8.84375 -17.902344 8.996094 -18.113281 9.238281 -18.113281 L 9.8125 -18.113281 C 10.808594 -18.113281 11.59375 -17.269531 11.59375 -16.300781 Z M 11.59375 -16.300781 "/></g></g></g><g fill="#ff914d" fill-opacity="1"><g transform="translate(310.924136, 29.211802)"><g><path d="M 9.417969 -17.601562 L 15.546875 -17.601562 C 16.421875 -17.601562 17.148438 -18.324219 17.148438 -19.171875 L 17.148438 -22.550781 C 17.148438 -23.425781 16.421875 -24.121094 15.546875 -24.121094 L 3.199219 -24.121094 C 1.960938 -24.121094 0.996094 -23.15625 0.996094 -22.460938 L 0.996094 -2.808594 C 0.996094 -1.027344 1.960938 -0.0585938 3.199219 -0.0585938 L 15.546875 -0.0585938 C 16.421875 -0.0585938 17.148438 -0.753906 17.148438 -1.628906 L 17.148438 -5.011719 C 17.148438 -5.886719 16.421875 -6.640625 15.546875 -6.640625 L 9.417969 -6.640625 C 9.296875 -6.640625 9.207031 -6.730469 9.207031 -6.851562 L 9.207031 -8.785156 C 9.207031 -8.90625 9.296875 -8.996094 9.417969 -8.996094 L 13.855469 -8.996094 C 14.640625 -8.996094 15.304688 -9.628906 15.304688 -10.445312 L 15.304688 -13.734375 C 15.304688 -14.519531 14.640625 -15.183594 13.855469 -15.183594 L 9.417969 -15.183594 C 9.296875 -15.183594 9.207031 -15.277344 9.207031 -15.367188 L 9.207031 -17.359375 C 9.207031 -17.449219 9.296875 -17.601562 9.417969 -17.601562 Z M 9.417969 -17.601562 "/></g></g></g><g fill="#ff914d" fill-opacity="1"><g transform="translate(329.066512, 29.211802)"><g><path d="M 19.773438 -2.566406 L 17.902344 -9.902344 C 17.84375 -10.144531 17.78125 -10.324219 17.691406 -10.476562 C 19.019531 -12.046875 19.863281 -13.976562 19.863281 -16.605469 C 19.863281 -21.222656 17.207031 -24.121094 13.917969 -24.121094 L 3.019531 -24.089844 C 1.839844 -24.089844 0.90625 -23.125 0.90625 -21.402344 L 0.90625 -2.171875 C 0.90625 -1.054688 1.839844 -0.0898438 3.019531 -0.0898438 L 6.882812 -0.0898438 C 7.488281 -0.0898438 8.089844 -0.332031 8.484375 -0.816406 C 9.027344 -1.417969 8.996094 -1.75 8.996094 -2.234375 L 8.996094 -7.277344 C 8.996094 -7.335938 9.027344 -7.457031 9.148438 -7.457031 C 9.269531 -7.457031 9.328125 -7.367188 9.328125 -7.304688 L 9.570312 -6.066406 L 10.355469 -2.386719 C 10.65625 -1.027344 11.984375 -0.0898438 13.011719 -0.0898438 L 17.902344 -0.0898438 C 19.078125 -0.0898438 20.074219 -1.148438 19.773438 -2.566406 Z M 11.742188 -15.820312 L 11.742188 -15.398438 C 11.742188 -14.429688 10.929688 -13.617188 9.960938 -13.617188 L 9.390625 -13.617188 C 9.148438 -13.617188 8.996094 -13.796875 8.996094 -14.007812 L 8.996094 -17.238281 C 8.996094 -17.449219 9.148438 -17.628906 9.390625 -17.628906 L 9.960938 -17.628906 C 10.929688 -17.628906 11.742188 -16.816406 11.742188 -15.820312 Z M 11.742188 -15.820312 "/></g></g></g><g fill="#ff914d" fill-opacity="1"><g transform="translate(349.925695, 29.211802)"><g><path d="M 10.566406 -25.238281 C 10.203125 -25.238281 0.511719 -25.75 0.511719 -17.359375 C 0.511719 -12.105469 4.316406 -9.085938 9.417969 -9.085938 L 11.230469 -9.085938 C 12.226562 -9.085938 13.042969 -8.484375 13.042969 -7.488281 C 13.042969 -6.519531 12.226562 -5.828125 11.382812 -5.828125 C 10.898438 -5.828125 10.082031 -5.976562 9.78125 -7.183594 C 9.691406 -7.425781 9.570312 -7.578125 9.117188 -7.488281 L 1.027344 -6.519531 C 0.574219 -6.429688 0.484375 -6.128906 0.722656 -5.675781 C 1.960938 -2.234375 4.167969 1.085938 11.714844 1.085938 C 15.515625 1.085938 20.316406 -0.996094 20.316406 -7.636719 C 20.316406 -15.820312 13.101562 -15.214844 10.566406 -15.214844 C 9.78125 -15.214844 8.273438 -15.398438 8.273438 -16.84375 C 8.273438 -18.023438 9.269531 -18.535156 9.933594 -18.535156 C 10.414062 -18.535156 11.230469 -18.175781 11.53125 -17.359375 C 11.652344 -16.996094 11.925781 -16.84375 12.226562 -16.84375 L 19.621094 -17.871094 C 19.953125 -17.902344 20.195312 -18.234375 20.105469 -18.6875 C 19.773438 -20.316406 18.324219 -25.238281 10.566406 -25.238281 Z M 10.566406 -25.238281 "/></g></g></g></svg>